<mxfile host="app.diagrams.net" modified="2021-01-25T09:06:35.917Z" agent="5.0 (Macintosh; Intel Mac OS X 10_14_6) AppleWebKit/537.36 (KHTML, like Gecko) Chrome/87.0.4280.141 Safari/537.36" etag="gybeTSatUrgMnCCJR4uU" version="14.2.7" type="github">
  <diagram id="9ik1-br6gfZZ6wv1bIjM" name="Page-1">
    <mxGraphModel dx="942" dy="591" grid="0" gridSize="10" guides="1" tooltips="1" connect="1" arrows="1" fold="1" page="1" pageScale="1" pageWidth="827" pageHeight="1169" background="#283618" math="0" shadow="0">
      <root>
        <mxCell id="0" />
        <mxCell id="1" parent="0" />
        <mxCell id="yudqlnheYnadhSwOlLP4-13" style="edgeStyle=orthogonalEdgeStyle;rounded=0;orthogonalLoop=1;jettySize=auto;html=1;entryX=0.5;entryY=0;entryDx=0;entryDy=0;labelBackgroundColor=#283618;strokeColor=#DDA15E;fontColor=#FEFAE0;" parent="1" source="yudqlnheYnadhSwOlLP4-1" target="yudqlnheYnadhSwOlLP4-3" edge="1">
          <mxGeometry relative="1" as="geometry" />
        </mxCell>
        <mxCell id="yudqlnheYnadhSwOlLP4-17" value="消费" style="edgeLabel;html=1;align=center;verticalAlign=middle;resizable=0;points=[];labelBackgroundColor=#283618;fontColor=#FEFAE0;" parent="yudqlnheYnadhSwOlLP4-13" vertex="1" connectable="0">
          <mxGeometry x="-0.2" y="-3" relative="1" as="geometry">
            <mxPoint as="offset" />
          </mxGeometry>
        </mxCell>
        <mxCell id="yudqlnheYnadhSwOlLP4-1" value="风控事件消息" style="rounded=1;whiteSpace=wrap;html=1;fillColor=#BC6C25;strokeColor=#DDA15E;fontColor=#FEFAE0;" parent="1" vertex="1">
          <mxGeometry x="340" y="4" width="120" height="60" as="geometry" />
        </mxCell>
        <mxCell id="yudqlnheYnadhSwOlLP4-12" style="edgeStyle=orthogonalEdgeStyle;rounded=0;orthogonalLoop=1;jettySize=auto;html=1;entryX=0;entryY=0.5;entryDx=0;entryDy=0;labelBackgroundColor=#283618;strokeColor=#DDA15E;fontColor=#FEFAE0;" parent="1" source="yudqlnheYnadhSwOlLP4-2" target="yudqlnheYnadhSwOlLP4-3" edge="1">
          <mxGeometry relative="1" as="geometry" />
        </mxCell>
        <mxCell id="yudqlnheYnadhSwOlLP4-15" value="broadcast" style="edgeLabel;html=1;align=center;verticalAlign=middle;resizable=0;points=[];labelBackgroundColor=#283618;fontColor=#FEFAE0;" parent="yudqlnheYnadhSwOlLP4-12" vertex="1" connectable="0">
          <mxGeometry x="-0.0833" y="3" relative="1" as="geometry">
            <mxPoint as="offset" />
          </mxGeometry>
        </mxCell>
        <mxCell id="yudqlnheYnadhSwOlLP4-2" value="风控规则流/周期更新" style="rounded=1;whiteSpace=wrap;html=1;fillColor=#BC6C25;strokeColor=#DDA15E;fontColor=#FEFAE0;" parent="1" vertex="1">
          <mxGeometry x="99" y="107" width="120" height="60" as="geometry" />
        </mxCell>
        <mxCell id="yudqlnheYnadhSwOlLP4-18" style="edgeStyle=orthogonalEdgeStyle;rounded=0;orthogonalLoop=1;jettySize=auto;html=1;exitX=0.5;exitY=1;exitDx=0;exitDy=0;labelBackgroundColor=#283618;strokeColor=#DDA15E;fontColor=#FEFAE0;" parent="1" source="yudqlnheYnadhSwOlLP4-3" target="yudqlnheYnadhSwOlLP4-4" edge="1">
          <mxGeometry relative="1" as="geometry" />
        </mxCell>
        <mxCell id="yudqlnheYnadhSwOlLP4-49" value="事件流补全规则" style="edgeLabel;html=1;align=center;verticalAlign=middle;resizable=0;points=[];labelBackgroundColor=#283618;fontColor=#FEFAE0;" parent="yudqlnheYnadhSwOlLP4-18" vertex="1" connectable="0">
          <mxGeometry x="-0.28" relative="1" as="geometry">
            <mxPoint as="offset" />
          </mxGeometry>
        </mxCell>
        <mxCell id="yudqlnheYnadhSwOlLP4-3" value="风控事件流/Flink&lt;br&gt;双流Connect" style="rounded=1;whiteSpace=wrap;html=1;fillColor=#BC6C25;strokeColor=#DDA15E;fontColor=#FEFAE0;" parent="1" vertex="1">
          <mxGeometry x="340" y="107" width="120" height="60" as="geometry" />
        </mxCell>
        <mxCell id="yudqlnheYnadhSwOlLP4-25" style="edgeStyle=orthogonalEdgeStyle;rounded=0;orthogonalLoop=1;jettySize=auto;html=1;entryX=0.5;entryY=0;entryDx=0;entryDy=0;labelBackgroundColor=#283618;strokeColor=#DDA15E;fontColor=#FEFAE0;" parent="1" source="yudqlnheYnadhSwOlLP4-4" target="yudqlnheYnadhSwOlLP4-5" edge="1">
          <mxGeometry relative="1" as="geometry">
            <Array as="points">
              <mxPoint x="400" y="340" />
              <mxPoint x="125" y="340" />
            </Array>
          </mxGeometry>
        </mxCell>
        <mxCell id="yudqlnheYnadhSwOlLP4-27" style="edgeStyle=orthogonalEdgeStyle;rounded=0;orthogonalLoop=1;jettySize=auto;html=1;entryX=0.5;entryY=0;entryDx=0;entryDy=0;labelBackgroundColor=#283618;strokeColor=#DDA15E;fontColor=#FEFAE0;" parent="1" source="yudqlnheYnadhSwOlLP4-4" target="yudqlnheYnadhSwOlLP4-20" edge="1">
          <mxGeometry relative="1" as="geometry">
            <Array as="points">
              <mxPoint x="400" y="341" />
              <mxPoint x="345" y="341" />
            </Array>
          </mxGeometry>
        </mxCell>
        <mxCell id="yudqlnheYnadhSwOlLP4-31" style="edgeStyle=orthogonalEdgeStyle;rounded=0;orthogonalLoop=1;jettySize=auto;html=1;entryX=0.5;entryY=0;entryDx=0;entryDy=0;labelBackgroundColor=#283618;strokeColor=#DDA15E;fontColor=#FEFAE0;" parent="1" source="yudqlnheYnadhSwOlLP4-4" target="yudqlnheYnadhSwOlLP4-21" edge="1">
          <mxGeometry relative="1" as="geometry">
            <Array as="points">
              <mxPoint x="400" y="341" />
              <mxPoint x="455" y="341" />
            </Array>
          </mxGeometry>
        </mxCell>
        <mxCell id="yudqlnheYnadhSwOlLP4-32" style="edgeStyle=orthogonalEdgeStyle;rounded=0;orthogonalLoop=1;jettySize=auto;html=1;labelBackgroundColor=#283618;strokeColor=#DDA15E;fontColor=#FEFAE0;" parent="1" source="yudqlnheYnadhSwOlLP4-4" target="yudqlnheYnadhSwOlLP4-22" edge="1">
          <mxGeometry relative="1" as="geometry">
            <Array as="points">
              <mxPoint x="400" y="340" />
              <mxPoint x="565" y="340" />
            </Array>
          </mxGeometry>
        </mxCell>
        <mxCell id="yudqlnheYnadhSwOlLP4-33" style="edgeStyle=orthogonalEdgeStyle;rounded=0;orthogonalLoop=1;jettySize=auto;html=1;entryX=0.5;entryY=0;entryDx=0;entryDy=0;labelBackgroundColor=#283618;strokeColor=#DDA15E;fontColor=#FEFAE0;" parent="1" source="yudqlnheYnadhSwOlLP4-4" target="yudqlnheYnadhSwOlLP4-23" edge="1">
          <mxGeometry relative="1" as="geometry">
            <Array as="points">
              <mxPoint x="400" y="340" />
              <mxPoint x="675" y="340" />
            </Array>
          </mxGeometry>
        </mxCell>
        <mxCell id="yudqlnheYnadhSwOlLP4-34" value="&lt;span style=&quot;color: rgba(0 , 0 , 0 , 0) ; font-family: monospace ; font-size: 0px ; background-color: rgb(248 , 249 , 250)&quot;&gt;%3CmxGraphModel%3E%3Croot%3E%3CmxCell%20id%3D%220%22%2F%3E%3CmxCell%20id%3D%221%22%20parent%3D%220%22%2F%3E%3CmxCell%20id%3D%222%22%20value%3D%22%E6%BB%A1%E8%B6%B3%E8%A7%84%E5%88%99%22%20style%3D%22edgeLabel%3Bhtml%3D1%3Balign%3Dcenter%3BverticalAlign%3Dmiddle%3Bresizable%3D0%3Bpoints%3D%5B%5D%3B%22%20vertex%3D%221%22%20connectable%3D%220%22%20parent%3D%221%22%3E%3CmxGeometry%20x%3D%22126%22%20y%3D%22389%22%20as%3D%22geometry%22%2F%3E%3C%2FmxCell%3E%3C%2Froot%3E%3C%2FmxGraphModel%3E&lt;/span&gt;" style="edgeStyle=orthogonalEdgeStyle;rounded=0;orthogonalLoop=1;jettySize=auto;html=1;labelBackgroundColor=#283618;strokeColor=#DDA15E;fontColor=#FEFAE0;" parent="1" source="yudqlnheYnadhSwOlLP4-4" target="yudqlnheYnadhSwOlLP4-19" edge="1">
          <mxGeometry relative="1" as="geometry">
            <Array as="points">
              <mxPoint x="400" y="340" />
              <mxPoint x="235" y="340" />
            </Array>
          </mxGeometry>
        </mxCell>
        <mxCell id="yudqlnheYnadhSwOlLP4-51" value="根据规则选择算子" style="edgeLabel;html=1;align=center;verticalAlign=middle;resizable=0;points=[];labelBackgroundColor=#283618;fontColor=#FEFAE0;" parent="yudqlnheYnadhSwOlLP4-34" vertex="1" connectable="0">
          <mxGeometry x="-0.8473" relative="1" as="geometry">
            <mxPoint as="offset" />
          </mxGeometry>
        </mxCell>
        <mxCell id="yudqlnheYnadhSwOlLP4-4" value="设置时间窗口/提取Watermark" style="rounded=1;whiteSpace=wrap;html=1;fillColor=#BC6C25;strokeColor=#DDA15E;fontColor=#FEFAE0;" parent="1" vertex="1">
          <mxGeometry x="340" y="212" width="120" height="60" as="geometry" />
        </mxCell>
        <mxCell id="yudqlnheYnadhSwOlLP4-36" style="edgeStyle=orthogonalEdgeStyle;rounded=0;orthogonalLoop=1;jettySize=auto;html=1;entryX=0;entryY=0.5;entryDx=0;entryDy=0;entryPerimeter=0;exitX=0.5;exitY=1;exitDx=0;exitDy=0;labelBackgroundColor=#283618;strokeColor=#DDA15E;fontColor=#FEFAE0;" parent="1" source="yudqlnheYnadhSwOlLP4-5" target="yudqlnheYnadhSwOlLP4-24" edge="1">
          <mxGeometry relative="1" as="geometry">
            <mxPoint x="150" y="510" as="sourcePoint" />
          </mxGeometry>
        </mxCell>
        <mxCell id="yudqlnheYnadhSwOlLP4-5" value="Count算子/周期触发" style="rounded=1;whiteSpace=wrap;html=1;fillColor=#BC6C25;strokeColor=#DDA15E;fontStyle=0;align=center;verticalAlign=middle;fontColor=#FEFAE0;" parent="1" vertex="1">
          <mxGeometry x="80" y="404" width="90" height="50" as="geometry" />
        </mxCell>
        <mxCell id="yudqlnheYnadhSwOlLP4-37" style="edgeStyle=orthogonalEdgeStyle;rounded=0;orthogonalLoop=1;jettySize=auto;html=1;entryX=0;entryY=0.5;entryDx=0;entryDy=0;entryPerimeter=0;exitX=0.5;exitY=1;exitDx=0;exitDy=0;labelBackgroundColor=#283618;strokeColor=#DDA15E;fontColor=#FEFAE0;" parent="1" source="yudqlnheYnadhSwOlLP4-19" target="yudqlnheYnadhSwOlLP4-24" edge="1">
          <mxGeometry relative="1" as="geometry" />
        </mxCell>
        <mxCell id="yudqlnheYnadhSwOlLP4-19" value="Distinct算子/周期触发" style="rounded=1;whiteSpace=wrap;html=1;fillColor=#BC6C25;strokeColor=#DDA15E;fontStyle=0;align=center;verticalAlign=middle;fontColor=#FEFAE0;" parent="1" vertex="1">
          <mxGeometry x="190" y="404" width="90" height="50" as="geometry" />
        </mxCell>
        <mxCell id="yudqlnheYnadhSwOlLP4-38" style="edgeStyle=orthogonalEdgeStyle;rounded=0;orthogonalLoop=1;jettySize=auto;html=1;entryX=0.5;entryY=0;entryDx=0;entryDy=0;entryPerimeter=0;labelBackgroundColor=#283618;strokeColor=#DDA15E;fontColor=#FEFAE0;" parent="1" source="yudqlnheYnadhSwOlLP4-20" target="yudqlnheYnadhSwOlLP4-24" edge="1">
          <mxGeometry relative="1" as="geometry" />
        </mxCell>
        <mxCell id="yudqlnheYnadhSwOlLP4-20" value="Sum算子/周期触发" style="rounded=1;whiteSpace=wrap;html=1;fillColor=#BC6C25;strokeColor=#DDA15E;fontStyle=0;align=center;verticalAlign=middle;fontColor=#FEFAE0;" parent="1" vertex="1">
          <mxGeometry x="300" y="404" width="90" height="50" as="geometry" />
        </mxCell>
        <mxCell id="yudqlnheYnadhSwOlLP4-39" style="edgeStyle=orthogonalEdgeStyle;rounded=0;orthogonalLoop=1;jettySize=auto;html=1;entryX=0.5;entryY=0;entryDx=0;entryDy=0;entryPerimeter=0;labelBackgroundColor=#283618;strokeColor=#DDA15E;fontColor=#FEFAE0;" parent="1" source="yudqlnheYnadhSwOlLP4-21" target="yudqlnheYnadhSwOlLP4-24" edge="1">
          <mxGeometry relative="1" as="geometry" />
        </mxCell>
        <mxCell id="yudqlnheYnadhSwOlLP4-21" value="Max算子/周期触发" style="rounded=1;whiteSpace=wrap;html=1;fillColor=#BC6C25;strokeColor=#DDA15E;fontStyle=0;align=center;verticalAlign=middle;fontColor=#FEFAE0;" parent="1" vertex="1">
          <mxGeometry x="410" y="404" width="90" height="50" as="geometry" />
        </mxCell>
        <mxCell id="yudqlnheYnadhSwOlLP4-40" style="edgeStyle=orthogonalEdgeStyle;rounded=0;orthogonalLoop=1;jettySize=auto;html=1;entryX=1;entryY=0.5;entryDx=0;entryDy=0;entryPerimeter=0;exitX=0.5;exitY=1;exitDx=0;exitDy=0;labelBackgroundColor=#283618;strokeColor=#DDA15E;fontColor=#FEFAE0;" parent="1" source="yudqlnheYnadhSwOlLP4-22" target="yudqlnheYnadhSwOlLP4-24" edge="1">
          <mxGeometry relative="1" as="geometry" />
        </mxCell>
        <mxCell id="yudqlnheYnadhSwOlLP4-22" value="Min算子/周期触发" style="rounded=1;whiteSpace=wrap;html=1;fillColor=#BC6C25;strokeColor=#DDA15E;fontStyle=0;align=center;verticalAlign=middle;fontColor=#FEFAE0;" parent="1" vertex="1">
          <mxGeometry x="520" y="404" width="90" height="50" as="geometry" />
        </mxCell>
        <mxCell id="yudqlnheYnadhSwOlLP4-41" style="edgeStyle=orthogonalEdgeStyle;rounded=0;orthogonalLoop=1;jettySize=auto;html=1;entryX=1;entryY=0.5;entryDx=0;entryDy=0;entryPerimeter=0;exitX=0.5;exitY=1;exitDx=0;exitDy=0;labelBackgroundColor=#283618;strokeColor=#DDA15E;fontColor=#FEFAE0;" parent="1" source="yudqlnheYnadhSwOlLP4-23" target="yudqlnheYnadhSwOlLP4-24" edge="1">
          <mxGeometry relative="1" as="geometry" />
        </mxCell>
        <mxCell id="yudqlnheYnadhSwOlLP4-23" value="Avg算子/周期触发" style="rounded=1;whiteSpace=wrap;html=1;fillColor=#BC6C25;strokeColor=#DDA15E;fontStyle=0;align=center;verticalAlign=middle;fontColor=#FEFAE0;" parent="1" vertex="1">
          <mxGeometry x="630" y="404" width="90" height="50" as="geometry" />
        </mxCell>
        <mxCell id="yudqlnheYnadhSwOlLP4-24" value="Redis" style="shape=cylinder3;whiteSpace=wrap;html=1;boundedLbl=1;backgroundOutline=1;size=15;fillColor=#BC6C25;strokeColor=#DDA15E;fontColor=#FEFAE0;" parent="1" vertex="1">
          <mxGeometry x="345" y="526" width="110" height="80" as="geometry" />
        </mxCell>
      </root>
    </mxGraphModel>
  </diagram>
</mxfile>
